<svg xmlns="http://www.w3.org/2000/svg" viewBox="0 4.32 242.28 247.68"><title>REITECH</title><path fill="#0145F2" d="M242.28,252h-89.28l-39.09-80.41c-.78-1.6-.65-3.48.34-4.96l25.92-38.88c2.21-3.32-.17-7.77-4.16-7.77h-18.55c-2.76,0-5-2.24-5-5v-60.72c0-4.95-6.42-6.89-9.16-2.77l-51.45,77.17c-2.22,3.32.17,7.77,4.16,7.77h18.56c2.76,0,5,2.24,5,5v110.58H0V4.32h170.94c25.12,0,46.54,15.9,54.71,38.19.01.01.01.02.01.03,2.02,3.81,3.07,8.96,3.29,14.6.17,1.79.25,3.61.25,5.44,0,16.08-6.52,30.65-17.07,41.19-8.34,8.35-19.2,14.18-31.35,16.24l61.5,131.99Z"/></svg>
